# xmcd
# 
# Track frame offsets:
#     150
#     21578
#     25664
# 
# Disc length: 673
# 
# Revision: 0
# Processed by: cddbd v1.5.2PL0 Copyright (c) Steve Scherf et al.
# Submitted via: fre:ac v1.0.17
# 
DISCID=1c029f03
DTITLE=KleiSSieG - Brilliant Mythology
DYEAR=0
DGENRE=
TTITLE0=ガラスの刃
TTITLE1=Introduction(inst)
TTITLE2=Brilliant Mythology
EXTD=
EXTT0=
EXTT1=
EXTT2=
PLAYORDER=
